# xmcd
# 
# Track frame offsets:
#     187
#     53677
#     85454
#     116504
#     150984
#     179397
# 
# Disc length: 3017
# 
# Revision: 1
# Processed by: cddbd v1.5.2PL0 Copyright (c) Steve Scherf et al.
# Submitted via: BonkEnc v1.0.8
# 
DISCID=400bc706
DTITLE=Jackie McLean, John Jenkins - Alto Madness
DYEAR=1957
DGENRE=Jazz
TTITLE0=Alto Madness
TTITLE1=Windy City
TTITLE2=The Lady is A Tramp
TTITLE3=Easy Living
TTITLE4=Pondering
TTITLE5=Bird Feathers [bonus track]
EXTD=YEAR: 1957
EXTT0=
EXTT1=
EXTT2=
EXTT3=
EXTT4=
EXTT5=
PLAYORDER=
